<svg width="264" height="71" viewBox="0 0 264 71" fill="none" xmlns="http://www.w3.org/2000/svg">
<path d="M60.3899 15.7876L49.7599 9.69756C43.6599 6.18756 37.0699 2.40756 33.8099 0.54756C33.1845 0.188779 32.476 0 31.7549 0C31.0339 0 30.3254 0.188779 29.6999 0.54756L2.93994 15.8976L34.4199 33.9976V70.5876L37.5199 68.7976L40.1499 67.2976V30.6376L14.4699 15.8976L20.2299 12.5876L45.8899 27.3076V63.9976L49.0499 62.1876L51.6199 60.7076V23.9976L25.9999 9.28756L31.7599 5.99756L57.3599 20.6876V57.4176L60.4199 55.6676C61.2362 55.1916 61.9132 54.5099 62.3835 53.6904C62.8538 52.8709 63.1008 51.9424 63.0999 50.9976V20.4676C63.0989 19.5189 62.8471 18.5875 62.3699 17.7676C61.8937 16.9464 61.2111 16.2639 60.3899 15.7876Z" fill="white"/>
<path d="M0 50.7776C0.000875198 51.6655 0.220269 52.5396 0.638823 53.3226C1.05738 54.1056 1.66223 54.7736 2.4 55.2676L28.68 70.3476V50.5076L11.47 40.6376V47.2476L22.92 53.8076V60.4276L5.74 50.5676V30.7276C5.74 30.7276 17.08 37.2376 28.68 43.9376V37.3276L0 20.8276V50.7776Z" fill="white"/>
<path d="M86.11 37.1577H90.76V40.2777C89.5853 41.2165 88.1127 41.7026 86.61 41.6477C82.01 41.6477 80.48 38.1577 80.48 35.3677C80.48 31.1077 82.9 28.9877 86.61 28.9877C88.2935 28.9866 89.9191 29.602 91.18 30.7177L93.88 28.0177C92.9538 27.026 91.8254 26.2449 90.5711 25.7273C89.3168 25.2097 87.9659 24.9677 86.61 25.0177C79.45 25.0177 76.21 29.8977 76.21 35.3777C76.21 40.4577 79.06 45.6677 86.58 45.6677C90.18 45.6677 92.85 44.4377 94.52 42.0477V33.5477H86.11V37.1577Z" fill="white"/>
<path d="M114.48 32.1674C114.48 28.7374 111.97 25.5874 107.26 25.5874H98V45.0974H102.34V38.6874H105.49L110.49 45.0974H115.31V44.7674L110 38.2974C113.7 36.9974 114.45 34.7074 114.48 32.1674ZM107.31 34.9974H102.31V29.3274H107.22C107.613 29.3172 108.004 29.3884 108.368 29.5366C108.732 29.6849 109.062 29.9068 109.336 30.1886C109.611 30.4704 109.824 30.8059 109.962 31.1739C110.1 31.542 110.161 31.9347 110.14 32.3274C110.136 32.6907 110.06 33.0494 109.914 33.3823C109.768 33.7151 109.557 34.0152 109.293 34.2644C109.029 34.5137 108.717 34.7071 108.376 34.8331C108.035 34.959 107.673 35.0149 107.31 34.9974Z" fill="white"/>
<path d="M124.67 25.5874L115.92 45.0974H120.6L122 41.7574H132L133.42 45.0974H138.13L129.38 25.5874H124.67ZM123.67 37.9074L127 29.9974L130.35 37.9074H123.67Z" fill="white"/>
<path d="M145.69 33.3374L141 25.5874H135.99V25.8174L143.46 37.3474V45.0974H147.8V37.3474L155.61 25.8174V25.5874H150.62L145.69 33.3374Z" fill="white"/>
<path d="M166.56 36.9974L159.09 25.6274H157.3V45.0974H158.81V27.7674L166.33 39.1874H166.84L174.3 27.7674V45.0974H175.78V25.5874H173.94L166.56 36.9974Z" fill="white"/>
<path d="M186.82 25.5874L178.06 45.0974H179.68L181.8 40.3074H193.45L195.59 45.0974H197.21L188.46 25.5874H186.82ZM182.38 38.9074L187.62 26.9974L192.86 38.8674L182.38 38.9074Z" fill="white"/>
<path d="M195.01 26.9577H202.06V45.0977H203.56V26.9577H210.61V25.6177H195.01V26.9577Z" fill="white"/>
<path d="M211.95 26.9577H219V45.0977H220.51V26.9577H227.56V25.6177H211.95V26.9577Z" fill="white"/>
<path d="M231.87 35.9574H243.3V34.5874H231.87V27.0074H243.86V25.5874H230.4V45.0974H244.19V43.6474H231.87V35.9574Z" fill="white"/>
<path d="M256.2 37.6278C260.47 37.6278 262.56 34.8478 262.53 31.6278C262.543 30.7974 262.384 29.9734 262.062 29.2079C261.74 28.4423 261.262 27.752 260.66 27.1805C260.057 26.609 259.343 26.1688 258.561 25.8877C257.78 25.6067 256.949 25.4909 256.12 25.5478H247.53V45.0978H249V37.7178H254.32L261.07 45.0978H263.07L256.2 37.6278ZM249 36.2878V26.9978H256.08C256.706 26.9596 257.332 27.0529 257.92 27.2716C258.507 27.4903 259.042 27.8296 259.491 28.2676C259.939 28.7057 260.291 29.2327 260.523 29.8149C260.756 30.397 260.864 31.0214 260.84 31.6478C260.84 34.3778 259.31 36.2978 255.91 36.2978L249 36.2878Z" fill="white"/>
</svg>
