<svg width="552" height="1326" viewBox="0 0 552 1326" fill="none" xmlns="http://www.w3.org/2000/svg">
<path d="M1008.52 704.851C1330.48 449.029 1514.69 144.996 1419.97 25.7752C1325.24 -93.4456 987.44 17.2918 665.476 273.114C343.511 528.936 159.3 832.969 254.029 952.19C348.758 1071.41 686.554 960.673 1008.52 704.851Z" stroke="url(#paint0_linear_12_1740)" stroke-width="2" stroke-miterlimit="10"/>
<path d="M1030.46 716.304C1340.88 452.116 1505.91 136.171 1399.06 10.62C1292.21 -114.931 953.943 -2.54309 643.517 261.645C333.092 525.832 168.061 841.778 274.911 967.328C381.761 1092.88 720.03 980.491 1030.46 716.304Z" stroke="url(#paint1_linear_12_1740)" stroke-width="2" stroke-miterlimit="10"/>
<path d="M1054.57 728.481C1354.52 455.934 1500.27 127.781 1380.1 -4.46966C1259.93 -136.721 919.355 -22.9886 619.405 249.558C319.454 522.104 173.711 850.258 293.879 982.509C414.048 1114.76 754.621 1001.03 1054.57 728.481Z" stroke="url(#paint2_linear_12_1740)" stroke-width="2" stroke-miterlimit="10"/>
<path d="M1080.83 741.226C1371.33 460.304 1497.66 119.684 1363 -19.57C1228.34 -158.824 883.675 -43.9798 593.173 236.942C302.671 517.863 176.337 858.483 310.999 997.737C445.661 1136.99 790.324 1022.15 1080.83 741.226Z" stroke="url(#paint3_linear_12_1740)" stroke-width="2" stroke-miterlimit="10"/>
<path d="M1109.11 754.198C1391.11 464.824 1497.88 111.514 1347.6 -34.9422C1197.31 -181.398 846.874 -65.54 564.874 223.834C282.875 513.209 176.1 866.519 326.386 1012.98C476.672 1159.43 827.109 1043.57 1109.11 754.198Z" stroke="url(#paint4_linear_12_1740)" stroke-width="2" stroke-miterlimit="10"/>
<path d="M1139.25 767.63C1413.71 469.788 1500.88 103.639 1333.95 -50.1863C1167.02 -204.011 809.204 -87.2618 534.742 210.581C260.28 508.424 173.108 874.573 340.037 1028.4C506.966 1182.22 864.784 1065.47 1139.25 767.63Z" stroke="url(#paint5_linear_12_1740)" stroke-width="2" stroke-miterlimit="10"/>
<path d="M1171.13 781.119C1438.89 474.721 1506.36 95.5991 1321.82 -65.6731C1137.28 -226.945 770.612 -109.298 502.848 197.1C235.084 503.498 167.618 882.62 352.159 1043.89C536.7 1205.16 903.366 1087.52 1171.13 781.119Z" stroke="url(#paint6_linear_12_1740)" stroke-width="2" stroke-miterlimit="10"/>
<path d="M1204.62 794.592C1466.47 479.534 1514.15 87.3322 1311.11 -81.4161C1108.07 -250.164 731.208 -131.557 469.358 183.5C207.509 498.558 159.833 890.76 362.871 1059.51C565.909 1228.26 942.775 1109.65 1204.62 794.592Z" stroke="url(#paint7_linear_12_1740)" stroke-width="2" stroke-miterlimit="10"/>
<path d="M1239.56 808.036C1496.2 484.233 1524.02 78.879 1301.68 -97.3484C1079.34 -273.576 691.041 -153.943 434.393 169.86C177.746 493.662 149.934 899.017 372.273 1075.24C594.612 1251.47 982.908 1131.84 1239.56 808.036Z" stroke="url(#paint8_linear_12_1740)" stroke-width="2" stroke-miterlimit="10"/>
<path d="M1275.77 821.802C1527.96 489.198 1535.96 70.6181 1293.63 -113.122C1051.31 -296.861 650.421 -176.183 398.23 156.422C146.039 489.026 138.043 907.605 380.37 1091.35C622.697 1275.08 1023.58 1154.41 1275.77 821.802Z" stroke="url(#paint9_linear_12_1740)" stroke-width="2" stroke-miterlimit="10"/>
<path d="M1313.21 835.104C1561.46 493.549 1549.49 61.6997 1286.49 -129.459C1023.48 -320.618 609.029 -198.697 360.779 142.858C112.529 484.413 124.49 916.262 387.496 1107.42C650.502 1298.58 1064.96 1176.66 1313.21 835.104Z" stroke="url(#paint10_linear_12_1740)" stroke-width="2" stroke-miterlimit="10"/>
<path d="M1351.65 848.667C1596.58 498.104 1564.71 52.9344 1280.48 -145.648C996.247 -344.23 567.281 -221.025 322.356 129.538C77.4309 480.101 109.296 925.27 393.528 1123.85C677.76 1322.43 1106.73 1199.23 1351.65 848.667Z" stroke="url(#paint11_linear_12_1740)" stroke-width="2" stroke-miterlimit="10"/>
<path d="M1391.09 861.709C1633.1 501.975 1581.21 43.4542 1275.18 -162.426C969.148 -368.306 524.875 -243.582 282.865 116.152C40.8556 475.886 92.7536 934.407 398.783 1140.29C704.812 1346.17 1149.09 1221.44 1391.09 861.709Z" stroke="url(#paint12_linear_12_1740)" stroke-width="2" stroke-miterlimit="10"/>
<path d="M1431.32 874.963C1670.94 505.995 1599.08 34.0785 1270.84 -179.093C942.588 -392.264 482.244 -265.966 242.629 103.002C3.01352 471.969 74.8648 943.886 403.113 1157.06C731.361 1370.23 1191.71 1243.93 1431.32 874.963Z" stroke="url(#paint13_linear_12_1740)" stroke-width="2" stroke-miterlimit="10"/>
<path d="M1472.33 887.977C1709.93 509.664 1618.08 24.3296 1267.19 -196.047C916.295 -416.423 439.229 -288.39 201.632 89.9239C-35.9646 468.238 55.8814 953.572 406.776 1173.95C757.671 1394.32 1234.74 1266.29 1472.33 887.977Z" stroke="url(#paint14_linear_12_1740)" stroke-width="2" stroke-miterlimit="10"/>
<path d="M1514.02 900.952C1749.96 513.206 1638.11 14.4265 1264.2 -213.102C890.28 -440.631 395.891 -310.748 159.947 76.9986C-75.9974 464.745 35.8517 963.524 409.769 1191.05C783.685 1418.58 1278.08 1288.7 1514.02 900.952Z" stroke="url(#paint15_linear_12_1740)" stroke-width="2" stroke-miterlimit="10"/>
<path d="M697.678 1312.68C1152.58 1389.62 1583.73 1083.23 1660.68 628.323C1737.62 173.418 1431.23 -257.732 976.322 -334.678C521.418 -411.623 90.2681 -105.227 13.3224 349.678C-63.6232 804.582 242.773 1235.73 697.678 1312.68Z" stroke="url(#paint16_linear_12_1740)" stroke-width="2" stroke-miterlimit="10"/>
<defs>
<linearGradient id="paint0_linear_12_1740" x1="976.322" y1="-334.678" x2="697.678" y2="1312.68" gradientUnits="userSpaceOnUse">
<stop stop-color="#DF30FD"/>
<stop offset="0.485275" stop-color="#0DEBF9"/>
<stop offset="1" stop-color="#40E9CB"/>
</linearGradient>
<linearGradient id="paint1_linear_12_1740" x1="976.322" y1="-334.678" x2="697.678" y2="1312.68" gradientUnits="userSpaceOnUse">
<stop stop-color="#DF30FD"/>
<stop offset="0.485275" stop-color="#0DEBF9"/>
<stop offset="1" stop-color="#40E9CB"/>
</linearGradient>
<linearGradient id="paint2_linear_12_1740" x1="976.322" y1="-334.678" x2="697.678" y2="1312.68" gradientUnits="userSpaceOnUse">
<stop stop-color="#DF30FD"/>
<stop offset="0.485275" stop-color="#0DEBF9"/>
<stop offset="1" stop-color="#40E9CB"/>
</linearGradient>
<linearGradient id="paint3_linear_12_1740" x1="976.322" y1="-334.678" x2="697.678" y2="1312.68" gradientUnits="userSpaceOnUse">
<stop stop-color="#DF30FD"/>
<stop offset="0.485275" stop-color="#0DEBF9"/>
<stop offset="1" stop-color="#40E9CB"/>
</linearGradient>
<linearGradient id="paint4_linear_12_1740" x1="976.322" y1="-334.678" x2="697.678" y2="1312.68" gradientUnits="userSpaceOnUse">
<stop stop-color="#DF30FD"/>
<stop offset="0.485275" stop-color="#0DEBF9"/>
<stop offset="1" stop-color="#40E9CB"/>
</linearGradient>
<linearGradient id="paint5_linear_12_1740" x1="976.322" y1="-334.678" x2="697.678" y2="1312.68" gradientUnits="userSpaceOnUse">
<stop stop-color="#DF30FD"/>
<stop offset="0.485275" stop-color="#0DEBF9"/>
<stop offset="1" stop-color="#40E9CB"/>
</linearGradient>
<linearGradient id="paint6_linear_12_1740" x1="976.322" y1="-334.678" x2="697.678" y2="1312.68" gradientUnits="userSpaceOnUse">
<stop stop-color="#DF30FD"/>
<stop offset="0.485275" stop-color="#0DEBF9"/>
<stop offset="1" stop-color="#40E9CB"/>
</linearGradient>
<linearGradient id="paint7_linear_12_1740" x1="976.322" y1="-334.678" x2="697.678" y2="1312.68" gradientUnits="userSpaceOnUse">
<stop stop-color="#DF30FD"/>
<stop offset="0.485275" stop-color="#0DEBF9"/>
<stop offset="1" stop-color="#40E9CB"/>
</linearGradient>
<linearGradient id="paint8_linear_12_1740" x1="976.322" y1="-334.678" x2="697.678" y2="1312.68" gradientUnits="userSpaceOnUse">
<stop stop-color="#DF30FD"/>
<stop offset="0.485275" stop-color="#0DEBF9"/>
<stop offset="1" stop-color="#40E9CB"/>
</linearGradient>
<linearGradient id="paint9_linear_12_1740" x1="976.322" y1="-334.678" x2="697.678" y2="1312.68" gradientUnits="userSpaceOnUse">
<stop stop-color="#DF30FD"/>
<stop offset="0.485275" stop-color="#0DEBF9"/>
<stop offset="1" stop-color="#40E9CB"/>
</linearGradient>
<linearGradient id="paint10_linear_12_1740" x1="976.322" y1="-334.678" x2="697.678" y2="1312.68" gradientUnits="userSpaceOnUse">
<stop stop-color="#DF30FD"/>
<stop offset="0.485275" stop-color="#0DEBF9"/>
<stop offset="1" stop-color="#40E9CB"/>
</linearGradient>
<linearGradient id="paint11_linear_12_1740" x1="976.322" y1="-334.678" x2="697.678" y2="1312.68" gradientUnits="userSpaceOnUse">
<stop stop-color="#DF30FD"/>
<stop offset="0.485275" stop-color="#0DEBF9"/>
<stop offset="1" stop-color="#40E9CB"/>
</linearGradient>
<linearGradient id="paint12_linear_12_1740" x1="976.322" y1="-334.678" x2="697.678" y2="1312.68" gradientUnits="userSpaceOnUse">
<stop stop-color="#DF30FD"/>
<stop offset="0.485275" stop-color="#0DEBF9"/>
<stop offset="1" stop-color="#40E9CB"/>
</linearGradient>
<linearGradient id="paint13_linear_12_1740" x1="976.322" y1="-334.678" x2="697.678" y2="1312.68" gradientUnits="userSpaceOnUse">
<stop stop-color="#DF30FD"/>
<stop offset="0.485275" stop-color="#0DEBF9"/>
<stop offset="1" stop-color="#40E9CB"/>
</linearGradient>
<linearGradient id="paint14_linear_12_1740" x1="976.322" y1="-334.678" x2="697.678" y2="1312.68" gradientUnits="userSpaceOnUse">
<stop stop-color="#DF30FD"/>
<stop offset="0.485275" stop-color="#0DEBF9"/>
<stop offset="1" stop-color="#40E9CB"/>
</linearGradient>
<linearGradient id="paint15_linear_12_1740" x1="976.322" y1="-334.678" x2="697.678" y2="1312.68" gradientUnits="userSpaceOnUse">
<stop stop-color="#DF30FD"/>
<stop offset="0.485275" stop-color="#0DEBF9"/>
<stop offset="1" stop-color="#40E9CB"/>
</linearGradient>
<linearGradient id="paint16_linear_12_1740" x1="976.322" y1="-334.678" x2="697.678" y2="1312.68" gradientUnits="userSpaceOnUse">
<stop stop-color="#DF30FD"/>
<stop offset="0.485275" stop-color="#0DEBF9"/>
<stop offset="1" stop-color="#40E9CB"/>
</linearGradient>
</defs>
</svg>
