<svg width="38" height="32" viewBox="0 0 38 32" fill="none" xmlns="http://www.w3.org/2000/svg">
<path d="M11.9544 31.4377C26.2905 31.4377 34.1339 19.5575 34.1339 9.25813C34.1339 8.92415 34.1265 8.58274 34.1117 8.24875C35.6375 7.14533 36.9542 5.77859 38 4.21274C36.579 4.84497 35.0703 5.25787 33.5254 5.43735C35.152 4.46229 36.37 2.93051 36.9535 1.12598C35.4232 2.0329 33.7497 2.67265 32.0046 3.01782C30.8288 1.76849 29.2742 0.941284 27.5812 0.664097C25.8881 0.38691 24.1509 0.67518 22.6381 1.48434C21.1253 2.29349 19.9212 3.57847 19.2119 5.14059C18.5027 6.70272 18.3278 8.45499 18.7143 10.1265C15.6156 9.97099 12.5842 9.16605 9.81664 7.76384C7.04904 6.36163 4.60701 4.39346 2.64887 1.98692C1.65363 3.70282 1.34909 5.73329 1.79713 7.66566C2.24517 9.59803 3.41218 11.2873 5.06098 12.3902C3.82316 12.3509 2.61246 12.0176 1.52891 11.4179V11.5144C1.5278 13.3151 2.15032 15.0606 3.29066 16.4542C4.43099 17.8479 6.01876 18.8036 7.78406 19.1589C6.63742 19.4726 5.43397 19.5183 4.26684 19.2925C4.76497 20.8411 5.73416 22.1956 7.03914 23.1669C8.34412 24.1382 9.91978 24.6778 11.5462 24.7105C8.78501 26.8794 5.37411 28.0559 1.86289 28.0503C1.2402 28.0494 0.618132 28.0112 0 27.936C3.56702 30.2245 7.71642 31.4399 11.9544 31.4377Z" fill="white"/>
</svg>
